<mxfile host="app.diagrams.net" modified="2023-03-10T02:24:59.300Z" agent="5.0 (Windows NT 10.0; Win64; x64) AppleWebKit/537.36 (KHTML, like Gecko) Chrome/110.0.0.0 Safari/537.36" version="20.8.3" etag="Wo7W5OgreNlxpb7EqDq7" type="github">
  <diagram id="cROLNhJi18jyMTtRT4qv" name="Page-1">
    <mxGraphModel dx="1434" dy="788" grid="1" gridSize="10" guides="1" tooltips="1" connect="1" arrows="1" fold="1" page="1" pageScale="1" pageWidth="850" pageHeight="1100" math="0" shadow="0">
      <root>
        <mxCell id="0" />
        <mxCell id="1" parent="0" />
        <mxCell id="6nmaoUBlLYGYx-6xs3CL-19" value="Activity Flow" style="swimlane;childLayout=stackLayout;resizeParent=1;resizeParentMax=0;startSize=20;html=1;" vertex="1" parent="1">
          <mxGeometry x="55" y="70" width="700" height="1290" as="geometry" />
        </mxCell>
        <mxCell id="6nmaoUBlLYGYx-6xs3CL-20" value="KADIN" style="swimlane;startSize=20;html=1;" vertex="1" parent="6nmaoUBlLYGYx-6xs3CL-19">
          <mxGeometry y="20" width="250" height="1270" as="geometry" />
        </mxCell>
        <mxCell id="6nmaoUBlLYGYx-6xs3CL-26" value="Call authenticate API (Header: authorization keys, Payload Body: email, fullname encrypted)" style="rounded=1;whiteSpace=wrap;html=1;" vertex="1" parent="6nmaoUBlLYGYx-6xs3CL-20">
          <mxGeometry x="57.5" y="95" width="135" height="80" as="geometry" />
        </mxCell>
        <mxCell id="6nmaoUBlLYGYx-6xs3CL-29" value="" style="edgeStyle=orthogonalEdgeStyle;rounded=0;orthogonalLoop=1;jettySize=auto;html=1;" edge="1" parent="6nmaoUBlLYGYx-6xs3CL-20" source="6nmaoUBlLYGYx-6xs3CL-28" target="6nmaoUBlLYGYx-6xs3CL-26">
          <mxGeometry relative="1" as="geometry" />
        </mxCell>
        <mxCell id="6nmaoUBlLYGYx-6xs3CL-28" value="" style="strokeWidth=2;html=1;shape=mxgraph.flowchart.start_2;whiteSpace=wrap;" vertex="1" parent="6nmaoUBlLYGYx-6xs3CL-20">
          <mxGeometry x="110" y="30" width="30" height="30" as="geometry" />
        </mxCell>
        <mxCell id="6nmaoUBlLYGYx-6xs3CL-30" value="Show failed authenticate landing page" style="rounded=1;whiteSpace=wrap;html=1;" vertex="1" parent="6nmaoUBlLYGYx-6xs3CL-20">
          <mxGeometry x="57.5" y="315" width="135" height="50" as="geometry" />
        </mxCell>
        <mxCell id="6nmaoUBlLYGYx-6xs3CL-71" value="" style="edgeStyle=orthogonalEdgeStyle;rounded=0;orthogonalLoop=1;jettySize=auto;html=1;" edge="1" parent="6nmaoUBlLYGYx-6xs3CL-20" source="6nmaoUBlLYGYx-6xs3CL-57" target="6nmaoUBlLYGYx-6xs3CL-70">
          <mxGeometry relative="1" as="geometry" />
        </mxCell>
        <mxCell id="6nmaoUBlLYGYx-6xs3CL-57" value="Show landing page authenticated user" style="whiteSpace=wrap;html=1;rounded=1;" vertex="1" parent="6nmaoUBlLYGYx-6xs3CL-20">
          <mxGeometry x="57.5" y="1090" width="120" height="60" as="geometry" />
        </mxCell>
        <mxCell id="6nmaoUBlLYGYx-6xs3CL-52" value="Show change password page" style="whiteSpace=wrap;html=1;rounded=1;" vertex="1" parent="6nmaoUBlLYGYx-6xs3CL-20">
          <mxGeometry x="57.5" y="850" width="120" height="60" as="geometry" />
        </mxCell>
        <mxCell id="6nmaoUBlLYGYx-6xs3CL-70" value="" style="ellipse;whiteSpace=wrap;html=1;rounded=1;" vertex="1" parent="6nmaoUBlLYGYx-6xs3CL-20">
          <mxGeometry x="103.13" y="1220" width="28.75" height="30" as="geometry" />
        </mxCell>
        <mxCell id="6nmaoUBlLYGYx-6xs3CL-21" value="ODYSSEY" style="swimlane;startSize=20;html=1;" vertex="1" parent="6nmaoUBlLYGYx-6xs3CL-19">
          <mxGeometry x="250" y="20" width="450" height="1270" as="geometry" />
        </mxCell>
        <mxCell id="6nmaoUBlLYGYx-6xs3CL-47" style="edgeStyle=orthogonalEdgeStyle;rounded=0;orthogonalLoop=1;jettySize=auto;html=1;" edge="1" parent="6nmaoUBlLYGYx-6xs3CL-21" source="6nmaoUBlLYGYx-6xs3CL-31" target="6nmaoUBlLYGYx-6xs3CL-34">
          <mxGeometry relative="1" as="geometry" />
        </mxCell>
        <mxCell id="6nmaoUBlLYGYx-6xs3CL-31" value="Receive authorization header&lt;br&gt;(Access &amp;amp; Secret keys)" style="rounded=1;whiteSpace=wrap;html=1;" vertex="1" parent="6nmaoUBlLYGYx-6xs3CL-21">
          <mxGeometry x="27.5" y="110" width="135" height="50" as="geometry" />
        </mxCell>
        <mxCell id="6nmaoUBlLYGYx-6xs3CL-37" value="" style="edgeStyle=orthogonalEdgeStyle;rounded=0;orthogonalLoop=1;jettySize=auto;html=1;" edge="1" parent="6nmaoUBlLYGYx-6xs3CL-21" source="6nmaoUBlLYGYx-6xs3CL-34" target="6nmaoUBlLYGYx-6xs3CL-35">
          <mxGeometry relative="1" as="geometry" />
        </mxCell>
        <mxCell id="6nmaoUBlLYGYx-6xs3CL-34" value="Validate keys &amp;amp; subscription date" style="rounded=1;whiteSpace=wrap;html=1;" vertex="1" parent="6nmaoUBlLYGYx-6xs3CL-21">
          <mxGeometry x="27.5" y="210" width="135" height="50" as="geometry" />
        </mxCell>
        <mxCell id="6nmaoUBlLYGYx-6xs3CL-42" value="Yes" style="edgeStyle=orthogonalEdgeStyle;rounded=0;orthogonalLoop=1;jettySize=auto;html=1;" edge="1" parent="6nmaoUBlLYGYx-6xs3CL-21" source="6nmaoUBlLYGYx-6xs3CL-35" target="6nmaoUBlLYGYx-6xs3CL-41">
          <mxGeometry relative="1" as="geometry" />
        </mxCell>
        <mxCell id="6nmaoUBlLYGYx-6xs3CL-35" value="Check Valid" style="strokeWidth=2;html=1;shape=mxgraph.flowchart.decision;whiteSpace=wrap;" vertex="1" parent="6nmaoUBlLYGYx-6xs3CL-21">
          <mxGeometry x="65" y="310" width="60" height="60" as="geometry" />
        </mxCell>
        <mxCell id="6nmaoUBlLYGYx-6xs3CL-46" style="edgeStyle=orthogonalEdgeStyle;rounded=0;orthogonalLoop=1;jettySize=auto;html=1;" edge="1" parent="6nmaoUBlLYGYx-6xs3CL-21" source="6nmaoUBlLYGYx-6xs3CL-41" target="6nmaoUBlLYGYx-6xs3CL-33">
          <mxGeometry relative="1" as="geometry" />
        </mxCell>
        <mxCell id="6nmaoUBlLYGYx-6xs3CL-41" value="Receive request body&lt;br&gt;(Payload: email &amp;amp; fullname)" style="rounded=1;whiteSpace=wrap;html=1;" vertex="1" parent="6nmaoUBlLYGYx-6xs3CL-21">
          <mxGeometry x="27.5" y="430" width="135" height="50" as="geometry" />
        </mxCell>
        <mxCell id="6nmaoUBlLYGYx-6xs3CL-49" value="No" style="edgeStyle=orthogonalEdgeStyle;rounded=0;orthogonalLoop=1;jettySize=auto;html=1;exitX=0.5;exitY=1;exitDx=0;exitDy=0;" edge="1" parent="6nmaoUBlLYGYx-6xs3CL-21" source="6nmaoUBlLYGYx-6xs3CL-63" target="6nmaoUBlLYGYx-6xs3CL-48">
          <mxGeometry relative="1" as="geometry" />
        </mxCell>
        <mxCell id="6nmaoUBlLYGYx-6xs3CL-64" value="" style="edgeStyle=orthogonalEdgeStyle;rounded=0;orthogonalLoop=1;jettySize=auto;html=1;" edge="1" parent="6nmaoUBlLYGYx-6xs3CL-21" source="6nmaoUBlLYGYx-6xs3CL-33" target="6nmaoUBlLYGYx-6xs3CL-63">
          <mxGeometry relative="1" as="geometry" />
        </mxCell>
        <mxCell id="6nmaoUBlLYGYx-6xs3CL-33" value="Decrypt email &amp;amp; fullname" style="rounded=1;whiteSpace=wrap;html=1;" vertex="1" parent="6nmaoUBlLYGYx-6xs3CL-21">
          <mxGeometry x="27.5" y="530" width="135" height="50" as="geometry" />
        </mxCell>
        <mxCell id="6nmaoUBlLYGYx-6xs3CL-48" value="Store data&lt;br&gt;(email, fullname &amp;amp; random password) to incognito" style="whiteSpace=wrap;html=1;rounded=1;" vertex="1" parent="6nmaoUBlLYGYx-6xs3CL-21">
          <mxGeometry x="35" y="675" width="120" height="85" as="geometry" />
        </mxCell>
        <mxCell id="6nmaoUBlLYGYx-6xs3CL-66" value="Yes" style="edgeStyle=orthogonalEdgeStyle;rounded=0;orthogonalLoop=1;jettySize=auto;html=1;" edge="1" parent="6nmaoUBlLYGYx-6xs3CL-21" source="6nmaoUBlLYGYx-6xs3CL-63" target="6nmaoUBlLYGYx-6xs3CL-65">
          <mxGeometry relative="1" as="geometry" />
        </mxCell>
        <mxCell id="6nmaoUBlLYGYx-6xs3CL-63" value="Check existing data" style="rhombus;whiteSpace=wrap;html=1;rounded=1;" vertex="1" parent="6nmaoUBlLYGYx-6xs3CL-21">
          <mxGeometry x="210" y="512.5" width="80" height="85" as="geometry" />
        </mxCell>
        <mxCell id="6nmaoUBlLYGYx-6xs3CL-68" value="" style="edgeStyle=orthogonalEdgeStyle;rounded=0;orthogonalLoop=1;jettySize=auto;html=1;" edge="1" parent="6nmaoUBlLYGYx-6xs3CL-21" source="6nmaoUBlLYGYx-6xs3CL-65" target="6nmaoUBlLYGYx-6xs3CL-67">
          <mxGeometry relative="1" as="geometry" />
        </mxCell>
        <mxCell id="6nmaoUBlLYGYx-6xs3CL-65" value="Get data from incognito (&lt;b&gt;by email only&lt;/b&gt;) ?" style="whiteSpace=wrap;html=1;rounded=1;" vertex="1" parent="6nmaoUBlLYGYx-6xs3CL-21">
          <mxGeometry x="300" y="700" width="120" height="60" as="geometry" />
        </mxCell>
        <mxCell id="6nmaoUBlLYGYx-6xs3CL-67" value="Get details data from database" style="whiteSpace=wrap;html=1;rounded=1;" vertex="1" parent="6nmaoUBlLYGYx-6xs3CL-21">
          <mxGeometry x="300" y="840" width="120" height="60" as="geometry" />
        </mxCell>
        <mxCell id="6nmaoUBlLYGYx-6xs3CL-50" value="Store data to database" style="whiteSpace=wrap;html=1;rounded=1;" vertex="1" parent="6nmaoUBlLYGYx-6xs3CL-21">
          <mxGeometry x="35" y="790" width="120" height="60" as="geometry" />
        </mxCell>
        <mxCell id="6nmaoUBlLYGYx-6xs3CL-51" value="" style="edgeStyle=orthogonalEdgeStyle;rounded=0;orthogonalLoop=1;jettySize=auto;html=1;" edge="1" parent="6nmaoUBlLYGYx-6xs3CL-21" source="6nmaoUBlLYGYx-6xs3CL-48" target="6nmaoUBlLYGYx-6xs3CL-50">
          <mxGeometry relative="1" as="geometry" />
        </mxCell>
        <mxCell id="6nmaoUBlLYGYx-6xs3CL-54" value="Update new password to cognito &amp;amp; database" style="whiteSpace=wrap;html=1;rounded=1;" vertex="1" parent="6nmaoUBlLYGYx-6xs3CL-21">
          <mxGeometry x="35" y="960" width="120" height="60" as="geometry" />
        </mxCell>
        <mxCell id="6nmaoUBlLYGYx-6xs3CL-32" style="edgeStyle=orthogonalEdgeStyle;rounded=0;orthogonalLoop=1;jettySize=auto;html=1;" edge="1" parent="6nmaoUBlLYGYx-6xs3CL-19" source="6nmaoUBlLYGYx-6xs3CL-26" target="6nmaoUBlLYGYx-6xs3CL-31">
          <mxGeometry relative="1" as="geometry" />
        </mxCell>
        <mxCell id="6nmaoUBlLYGYx-6xs3CL-40" value="" style="edgeStyle=orthogonalEdgeStyle;rounded=0;orthogonalLoop=1;jettySize=auto;html=1;" edge="1" parent="6nmaoUBlLYGYx-6xs3CL-19" source="6nmaoUBlLYGYx-6xs3CL-35" target="6nmaoUBlLYGYx-6xs3CL-30">
          <mxGeometry relative="1" as="geometry" />
        </mxCell>
        <mxCell id="6nmaoUBlLYGYx-6xs3CL-43" value="No" style="edgeLabel;html=1;align=center;verticalAlign=middle;resizable=0;points=[];" vertex="1" connectable="0" parent="6nmaoUBlLYGYx-6xs3CL-40">
          <mxGeometry x="-0.6884" y="-2" relative="1" as="geometry">
            <mxPoint as="offset" />
          </mxGeometry>
        </mxCell>
        <mxCell id="6nmaoUBlLYGYx-6xs3CL-69" style="edgeStyle=orthogonalEdgeStyle;rounded=0;orthogonalLoop=1;jettySize=auto;html=1;exitX=0.5;exitY=1;exitDx=0;exitDy=0;" edge="1" parent="6nmaoUBlLYGYx-6xs3CL-19" source="6nmaoUBlLYGYx-6xs3CL-67" target="6nmaoUBlLYGYx-6xs3CL-57">
          <mxGeometry relative="1" as="geometry">
            <Array as="points">
              <mxPoint x="610" y="1140" />
            </Array>
          </mxGeometry>
        </mxCell>
        <mxCell id="6nmaoUBlLYGYx-6xs3CL-53" value="" style="edgeStyle=orthogonalEdgeStyle;rounded=0;orthogonalLoop=1;jettySize=auto;html=1;exitX=0.5;exitY=1;exitDx=0;exitDy=0;" edge="1" parent="6nmaoUBlLYGYx-6xs3CL-19" source="6nmaoUBlLYGYx-6xs3CL-50" target="6nmaoUBlLYGYx-6xs3CL-52">
          <mxGeometry relative="1" as="geometry" />
        </mxCell>
        <mxCell id="6nmaoUBlLYGYx-6xs3CL-55" value="" style="edgeStyle=orthogonalEdgeStyle;rounded=0;orthogonalLoop=1;jettySize=auto;html=1;exitX=0.433;exitY=1.017;exitDx=0;exitDy=0;exitPerimeter=0;" edge="1" parent="6nmaoUBlLYGYx-6xs3CL-19" source="6nmaoUBlLYGYx-6xs3CL-52" target="6nmaoUBlLYGYx-6xs3CL-54">
          <mxGeometry relative="1" as="geometry" />
        </mxCell>
        <mxCell id="6nmaoUBlLYGYx-6xs3CL-58" value="" style="edgeStyle=orthogonalEdgeStyle;rounded=0;orthogonalLoop=1;jettySize=auto;html=1;exitX=0.5;exitY=1;exitDx=0;exitDy=0;entryX=1;entryY=0.5;entryDx=0;entryDy=0;" edge="1" parent="6nmaoUBlLYGYx-6xs3CL-19" source="6nmaoUBlLYGYx-6xs3CL-54" target="6nmaoUBlLYGYx-6xs3CL-57">
          <mxGeometry relative="1" as="geometry" />
        </mxCell>
      </root>
    </mxGraphModel>
  </diagram>
</mxfile>
